<mxfile host="app.diagrams.net" agent="Mozilla/5.0 (Windows NT 10.0; Win64; x64) AppleWebKit/537.36 (KHTML, like Gecko) Chrome/131.0.0.0 Safari/537.36" version="26.2.14">
  <diagram name="Page-1" id="PsOOHwO3NufQJgfSfYb1">
    <mxGraphModel dx="1481" dy="631" grid="1" gridSize="10" guides="1" tooltips="1" connect="1" arrows="1" fold="1" page="1" pageScale="1" pageWidth="850" pageHeight="1100" math="0" shadow="0">
      <root>
        <mxCell id="0" />
        <mxCell id="1" parent="0" />
        <mxCell id="1S32xIj5badAPdLJ8PSW-82" value="" style="whiteSpace=wrap;html=1;aspect=fixed;" vertex="1" parent="1">
          <mxGeometry x="160" y="190" width="470" height="470" as="geometry" />
        </mxCell>
        <mxCell id="1S32xIj5badAPdLJ8PSW-84" value="Customer" style="shape=umlActor;verticalLabelPosition=bottom;verticalAlign=top;html=1;outlineConnect=0;" vertex="1" parent="1">
          <mxGeometry x="60" y="280" width="30" height="60" as="geometry" />
        </mxCell>
        <mxCell id="1S32xIj5badAPdLJ8PSW-85" value="Admin" style="shape=umlActor;verticalLabelPosition=bottom;verticalAlign=top;html=1;outlineConnect=0;" vertex="1" parent="1">
          <mxGeometry x="60" y="395" width="30" height="60" as="geometry" />
        </mxCell>
        <mxCell id="1S32xIj5badAPdLJ8PSW-86" value="Employee" style="shape=umlActor;verticalLabelPosition=bottom;verticalAlign=top;html=1;outlineConnect=0;" vertex="1" parent="1">
          <mxGeometry x="60" y="500" width="30" height="60" as="geometry" />
        </mxCell>
        <mxCell id="1S32xIj5badAPdLJ8PSW-87" value="BackEnd Server" style="shape=umlActor;verticalLabelPosition=bottom;verticalAlign=top;html=1;outlineConnect=0;" vertex="1" parent="1">
          <mxGeometry x="730" y="280" width="30" height="60" as="geometry" />
        </mxCell>
        <mxCell id="1S32xIj5badAPdLJ8PSW-88" value="Data Base" style="shape=umlActor;verticalLabelPosition=bottom;verticalAlign=top;html=1;outlineConnect=0;" vertex="1" parent="1">
          <mxGeometry x="730" y="500" width="30" height="60" as="geometry" />
        </mxCell>
        <mxCell id="1S32xIj5badAPdLJ8PSW-90" value="Sign Up" style="ellipse;whiteSpace=wrap;html=1;" vertex="1" parent="1">
          <mxGeometry x="220" y="210" width="120" height="80" as="geometry" />
        </mxCell>
        <mxCell id="1S32xIj5badAPdLJ8PSW-91" value="Place Water Order" style="ellipse;whiteSpace=wrap;html=1;" vertex="1" parent="1">
          <mxGeometry x="460" y="210" width="120" height="80" as="geometry" />
        </mxCell>
        <mxCell id="1S32xIj5badAPdLJ8PSW-92" value="Login" style="ellipse;whiteSpace=wrap;html=1;" vertex="1" parent="1">
          <mxGeometry x="220" y="300" width="120" height="80" as="geometry" />
        </mxCell>
        <mxCell id="1S32xIj5badAPdLJ8PSW-93" value="Track Order Status" style="ellipse;whiteSpace=wrap;html=1;" vertex="1" parent="1">
          <mxGeometry x="460" y="300" width="120" height="80" as="geometry" />
        </mxCell>
        <mxCell id="1S32xIj5badAPdLJ8PSW-94" value="Update Account" style="ellipse;whiteSpace=wrap;html=1;" vertex="1" parent="1">
          <mxGeometry x="220" y="390" width="120" height="80" as="geometry" />
        </mxCell>
        <mxCell id="1S32xIj5badAPdLJ8PSW-95" value="Cancel Order" style="ellipse;whiteSpace=wrap;html=1;" vertex="1" parent="1">
          <mxGeometry x="460" y="390" width="120" height="80" as="geometry" />
        </mxCell>
        <mxCell id="1S32xIj5badAPdLJ8PSW-96" value="Deliver Order" style="ellipse;whiteSpace=wrap;html=1;" vertex="1" parent="1">
          <mxGeometry x="230" y="480" width="120" height="80" as="geometry" />
        </mxCell>
        <mxCell id="1S32xIj5badAPdLJ8PSW-97" value="Manage Water Orders" style="ellipse;whiteSpace=wrap;html=1;" vertex="1" parent="1">
          <mxGeometry x="460" y="480" width="120" height="80" as="geometry" />
        </mxCell>
        <mxCell id="1S32xIj5badAPdLJ8PSW-98" value="Manage Customer &amp;amp; Employees" style="ellipse;whiteSpace=wrap;html=1;" vertex="1" parent="1">
          <mxGeometry x="230" y="570" width="120" height="80" as="geometry" />
        </mxCell>
        <mxCell id="1S32xIj5badAPdLJ8PSW-99" value="View Sales" style="ellipse;whiteSpace=wrap;html=1;" vertex="1" parent="1">
          <mxGeometry x="460" y="570" width="120" height="80" as="geometry" />
        </mxCell>
        <mxCell id="1S32xIj5badAPdLJ8PSW-100" value="Check" style="ellipse;whiteSpace=wrap;html=1;" vertex="1" parent="1">
          <mxGeometry x="360" y="295" width="70" height="30" as="geometry" />
        </mxCell>
        <mxCell id="1S32xIj5badAPdLJ8PSW-101" value="Error" style="ellipse;whiteSpace=wrap;html=1;" vertex="1" parent="1">
          <mxGeometry x="365" y="340" width="65" height="30" as="geometry" />
        </mxCell>
        <mxCell id="1S32xIj5badAPdLJ8PSW-114" value="" style="html=1;labelBackgroundColor=#ffffff;startArrow=none;startFill=0;startSize=6;endArrow=classic;endFill=1;endSize=6;jettySize=auto;orthogonalLoop=1;strokeWidth=1;dashed=1;fontSize=14;rounded=0;exitX=0.391;exitY=0.152;exitDx=0;exitDy=0;exitPerimeter=0;entryX=0.478;entryY=0.239;entryDx=0;entryDy=0;entryPerimeter=0;" edge="1" parent="1" source="1S32xIj5badAPdLJ8PSW-82" target="1S32xIj5badAPdLJ8PSW-82">
          <mxGeometry width="60" height="60" relative="1" as="geometry">
            <mxPoint x="360" y="420" as="sourcePoint" />
            <mxPoint x="390" y="290" as="targetPoint" />
          </mxGeometry>
        </mxCell>
        <mxCell id="1S32xIj5badAPdLJ8PSW-125" value="Include" style="edgeLabel;html=1;align=center;verticalAlign=middle;resizable=0;points=[];" vertex="1" connectable="0" parent="1S32xIj5badAPdLJ8PSW-114">
          <mxGeometry x="-0.154" y="1" relative="1" as="geometry">
            <mxPoint as="offset" />
          </mxGeometry>
        </mxCell>
        <mxCell id="1S32xIj5badAPdLJ8PSW-115" value="" style="html=1;labelBackgroundColor=#ffffff;startArrow=none;startFill=0;startSize=6;endArrow=classic;endFill=1;endSize=6;jettySize=auto;orthogonalLoop=1;strokeWidth=1;dashed=1;fontSize=14;rounded=0;entryX=1;entryY=1;entryDx=0;entryDy=0;exitX=0;exitY=0;exitDx=0;exitDy=0;" edge="1" parent="1" source="1S32xIj5badAPdLJ8PSW-101" target="1S32xIj5badAPdLJ8PSW-90">
          <mxGeometry width="60" height="60" relative="1" as="geometry">
            <mxPoint x="360" y="420" as="sourcePoint" />
            <mxPoint x="420" y="360" as="targetPoint" />
          </mxGeometry>
        </mxCell>
        <mxCell id="1S32xIj5badAPdLJ8PSW-126" value="extend" style="edgeLabel;html=1;align=center;verticalAlign=middle;resizable=0;points=[];" vertex="1" connectable="0" parent="1S32xIj5badAPdLJ8PSW-115">
          <mxGeometry x="-0.022" y="1" relative="1" as="geometry">
            <mxPoint as="offset" />
          </mxGeometry>
        </mxCell>
        <mxCell id="1S32xIj5badAPdLJ8PSW-121" value="" style="endArrow=none;html=1;rounded=0;entryX=0;entryY=0.3333333333333333;entryDx=0;entryDy=0;entryPerimeter=0;exitX=0.985;exitY=0.386;exitDx=0;exitDy=0;exitPerimeter=0;" edge="1" parent="1" source="1S32xIj5badAPdLJ8PSW-99" target="1S32xIj5badAPdLJ8PSW-88">
          <mxGeometry width="50" height="50" relative="1" as="geometry">
            <mxPoint x="650" y="600" as="sourcePoint" />
            <mxPoint x="700" y="550" as="targetPoint" />
          </mxGeometry>
        </mxCell>
        <mxCell id="1S32xIj5badAPdLJ8PSW-122" value="" style="endArrow=none;html=1;rounded=0;exitX=1;exitY=0.5;exitDx=0;exitDy=0;" edge="1" parent="1" source="1S32xIj5badAPdLJ8PSW-93">
          <mxGeometry width="50" height="50" relative="1" as="geometry">
            <mxPoint x="650" y="350" as="sourcePoint" />
            <mxPoint x="730" y="300" as="targetPoint" />
          </mxGeometry>
        </mxCell>
        <mxCell id="1S32xIj5badAPdLJ8PSW-123" value="" style="endArrow=none;html=1;rounded=0;entryX=0;entryY=0.3333333333333333;entryDx=0;entryDy=0;entryPerimeter=0;exitX=0.97;exitY=0.375;exitDx=0;exitDy=0;exitPerimeter=0;" edge="1" parent="1" source="1S32xIj5badAPdLJ8PSW-97" target="1S32xIj5badAPdLJ8PSW-87">
          <mxGeometry width="50" height="50" relative="1" as="geometry">
            <mxPoint x="660" y="370" as="sourcePoint" />
            <mxPoint x="710" y="320" as="targetPoint" />
          </mxGeometry>
        </mxCell>
        <mxCell id="1S32xIj5badAPdLJ8PSW-127" value="" style="endArrow=none;html=1;rounded=0;exitX=1;exitY=0.3333333333333333;exitDx=0;exitDy=0;exitPerimeter=0;entryX=0;entryY=0.5;entryDx=0;entryDy=0;" edge="1" parent="1" source="1S32xIj5badAPdLJ8PSW-84" target="1S32xIj5badAPdLJ8PSW-90">
          <mxGeometry width="50" height="50" relative="1" as="geometry">
            <mxPoint x="110" y="295" as="sourcePoint" />
            <mxPoint x="160" y="245" as="targetPoint" />
          </mxGeometry>
        </mxCell>
        <mxCell id="1S32xIj5badAPdLJ8PSW-128" value="" style="endArrow=none;html=1;rounded=0;exitX=1;exitY=0.3333333333333333;exitDx=0;exitDy=0;exitPerimeter=0;entryX=0.015;entryY=0.591;entryDx=0;entryDy=0;entryPerimeter=0;" edge="1" parent="1" source="1S32xIj5badAPdLJ8PSW-85" target="1S32xIj5badAPdLJ8PSW-92">
          <mxGeometry width="50" height="50" relative="1" as="geometry">
            <mxPoint x="140" y="420" as="sourcePoint" />
            <mxPoint x="190" y="370" as="targetPoint" />
          </mxGeometry>
        </mxCell>
        <mxCell id="1S32xIj5badAPdLJ8PSW-129" value="" style="endArrow=none;html=1;rounded=0;" edge="1" parent="1" target="1S32xIj5badAPdLJ8PSW-92">
          <mxGeometry width="50" height="50" relative="1" as="geometry">
            <mxPoint x="90" y="300" as="sourcePoint" />
            <mxPoint x="160" y="285" as="targetPoint" />
          </mxGeometry>
        </mxCell>
        <mxCell id="1S32xIj5badAPdLJ8PSW-130" value="" style="endArrow=none;html=1;rounded=0;exitX=1;exitY=0.3333333333333333;exitDx=0;exitDy=0;exitPerimeter=0;entryX=0.152;entryY=0.37;entryDx=0;entryDy=0;entryPerimeter=0;" edge="1" parent="1" source="1S32xIj5badAPdLJ8PSW-86" target="1S32xIj5badAPdLJ8PSW-82">
          <mxGeometry width="50" height="50" relative="1" as="geometry">
            <mxPoint x="130" y="510" as="sourcePoint" />
            <mxPoint x="180" y="460" as="targetPoint" />
          </mxGeometry>
        </mxCell>
        <mxCell id="1S32xIj5badAPdLJ8PSW-131" value="" style="endArrow=none;html=1;rounded=0;" edge="1" parent="1" source="1S32xIj5badAPdLJ8PSW-100">
          <mxGeometry width="50" height="50" relative="1" as="geometry">
            <mxPoint x="630" y="520" as="sourcePoint" />
            <mxPoint x="730" y="520" as="targetPoint" />
            <Array as="points">
              <mxPoint x="395" y="170" />
              <mxPoint x="680" y="170" />
              <mxPoint x="680" y="520" />
            </Array>
          </mxGeometry>
        </mxCell>
        <mxCell id="1S32xIj5badAPdLJ8PSW-132" value="" style="endArrow=none;html=1;rounded=0;entryX=0.091;entryY=0.216;entryDx=0;entryDy=0;entryPerimeter=0;" edge="1" parent="1" target="1S32xIj5badAPdLJ8PSW-91">
          <mxGeometry width="50" height="50" relative="1" as="geometry">
            <mxPoint x="90" y="300" as="sourcePoint" />
            <mxPoint x="160" y="200" as="targetPoint" />
            <Array as="points">
              <mxPoint x="90" y="160" />
              <mxPoint x="471" y="160" />
            </Array>
          </mxGeometry>
        </mxCell>
        <mxCell id="1S32xIj5badAPdLJ8PSW-133" value="" style="endArrow=none;html=1;rounded=0;" edge="1" parent="1" target="1S32xIj5badAPdLJ8PSW-94">
          <mxGeometry width="50" height="50" relative="1" as="geometry">
            <mxPoint x="90" y="520" as="sourcePoint" />
            <mxPoint x="180" y="390" as="targetPoint" />
          </mxGeometry>
        </mxCell>
        <mxCell id="1S32xIj5badAPdLJ8PSW-134" value="" style="endArrow=none;html=1;rounded=0;exitX=1;exitY=0.3333333333333333;exitDx=0;exitDy=0;exitPerimeter=0;entryX=0;entryY=0.5;entryDx=0;entryDy=0;" edge="1" parent="1" source="1S32xIj5badAPdLJ8PSW-85" target="1S32xIj5badAPdLJ8PSW-94">
          <mxGeometry width="50" height="50" relative="1" as="geometry">
            <mxPoint x="140" y="430" as="sourcePoint" />
            <mxPoint x="190" y="380" as="targetPoint" />
          </mxGeometry>
        </mxCell>
        <mxCell id="1S32xIj5badAPdLJ8PSW-135" value="" style="endArrow=none;html=1;rounded=0;entryX=0.068;entryY=0.284;entryDx=0;entryDy=0;entryPerimeter=0;" edge="1" parent="1" target="1S32xIj5badAPdLJ8PSW-94">
          <mxGeometry width="50" height="50" relative="1" as="geometry">
            <mxPoint x="90" y="300" as="sourcePoint" />
            <mxPoint x="180" y="275" as="targetPoint" />
          </mxGeometry>
        </mxCell>
        <mxCell id="1S32xIj5badAPdLJ8PSW-136" value="" style="endArrow=none;html=1;rounded=0;exitX=1;exitY=0.3333333333333333;exitDx=0;exitDy=0;exitPerimeter=0;entryX=0.106;entryY=0.227;entryDx=0;entryDy=0;entryPerimeter=0;" edge="1" parent="1" source="1S32xIj5badAPdLJ8PSW-85" target="1S32xIj5badAPdLJ8PSW-98">
          <mxGeometry width="50" height="50" relative="1" as="geometry">
            <mxPoint x="140" y="590" as="sourcePoint" />
            <mxPoint x="190" y="540" as="targetPoint" />
          </mxGeometry>
        </mxCell>
        <mxCell id="1S32xIj5badAPdLJ8PSW-137" value="" style="endArrow=none;html=1;rounded=0;entryX=0;entryY=0.5;entryDx=0;entryDy=0;" edge="1" parent="1" target="1S32xIj5badAPdLJ8PSW-96">
          <mxGeometry width="50" height="50" relative="1" as="geometry">
            <mxPoint x="90" y="520" as="sourcePoint" />
            <mxPoint x="180" y="550" as="targetPoint" />
          </mxGeometry>
        </mxCell>
        <mxCell id="1S32xIj5badAPdLJ8PSW-138" value="" style="html=1;labelBackgroundColor=#ffffff;startArrow=none;startFill=0;startSize=6;endArrow=classic;endFill=1;endSize=6;jettySize=auto;orthogonalLoop=1;strokeWidth=1;dashed=1;fontSize=14;rounded=0;exitX=1;exitY=0.5;exitDx=0;exitDy=0;entryX=0;entryY=1;entryDx=0;entryDy=0;" edge="1" parent="1" source="1S32xIj5badAPdLJ8PSW-94" target="1S32xIj5badAPdLJ8PSW-100">
          <mxGeometry width="60" height="60" relative="1" as="geometry">
            <mxPoint x="360" y="430" as="sourcePoint" />
            <mxPoint x="400" y="470" as="targetPoint" />
          </mxGeometry>
        </mxCell>
        <mxCell id="1S32xIj5badAPdLJ8PSW-139" value="Include" style="edgeLabel;html=1;align=center;verticalAlign=middle;resizable=0;points=[];" vertex="1" connectable="0" parent="1S32xIj5badAPdLJ8PSW-138">
          <mxGeometry x="-0.154" y="1" relative="1" as="geometry">
            <mxPoint as="offset" />
          </mxGeometry>
        </mxCell>
        <mxCell id="1S32xIj5badAPdLJ8PSW-140" value="" style="html=1;labelBackgroundColor=#ffffff;startArrow=none;startFill=0;startSize=6;endArrow=classic;endFill=1;endSize=6;jettySize=auto;orthogonalLoop=1;strokeWidth=1;dashed=1;fontSize=14;rounded=0;exitX=0.5;exitY=1;exitDx=0;exitDy=0;" edge="1" parent="1" source="1S32xIj5badAPdLJ8PSW-101">
          <mxGeometry width="60" height="60" relative="1" as="geometry">
            <mxPoint x="423.5" y="480" as="sourcePoint" />
            <mxPoint x="340" y="430" as="targetPoint" />
          </mxGeometry>
        </mxCell>
        <mxCell id="1S32xIj5badAPdLJ8PSW-141" value="extend" style="edgeLabel;html=1;align=center;verticalAlign=middle;resizable=0;points=[];" vertex="1" connectable="0" parent="1S32xIj5badAPdLJ8PSW-140">
          <mxGeometry x="-0.022" y="1" relative="1" as="geometry">
            <mxPoint as="offset" />
          </mxGeometry>
        </mxCell>
        <mxCell id="1S32xIj5badAPdLJ8PSW-144" value="" style="html=1;labelBackgroundColor=#ffffff;startArrow=none;startFill=0;startSize=6;endArrow=classic;endFill=1;endSize=6;jettySize=auto;orthogonalLoop=1;strokeWidth=1;dashed=1;fontSize=14;rounded=0;exitX=0.03;exitY=0.375;exitDx=0;exitDy=0;exitPerimeter=0;entryX=1;entryY=0;entryDx=0;entryDy=0;" edge="1" parent="1" source="1S32xIj5badAPdLJ8PSW-91" target="1S32xIj5badAPdLJ8PSW-100">
          <mxGeometry width="60" height="60" relative="1" as="geometry">
            <mxPoint x="420" y="255" as="sourcePoint" />
            <mxPoint x="460" y="295" as="targetPoint" />
          </mxGeometry>
        </mxCell>
        <mxCell id="1S32xIj5badAPdLJ8PSW-145" value="Include" style="edgeLabel;html=1;align=center;verticalAlign=middle;resizable=0;points=[];" vertex="1" connectable="0" parent="1S32xIj5badAPdLJ8PSW-144">
          <mxGeometry x="-0.154" y="1" relative="1" as="geometry">
            <mxPoint as="offset" />
          </mxGeometry>
        </mxCell>
        <mxCell id="1S32xIj5badAPdLJ8PSW-146" value="" style="html=1;labelBackgroundColor=#ffffff;startArrow=none;startFill=0;startSize=6;endArrow=classic;endFill=1;endSize=6;jettySize=auto;orthogonalLoop=1;strokeWidth=1;dashed=1;fontSize=14;rounded=0;exitX=1;exitY=0;exitDx=0;exitDy=0;entryX=0.197;entryY=0.875;entryDx=0;entryDy=0;entryPerimeter=0;" edge="1" parent="1" source="1S32xIj5badAPdLJ8PSW-101" target="1S32xIj5badAPdLJ8PSW-91">
          <mxGeometry width="60" height="60" relative="1" as="geometry">
            <mxPoint x="430" y="380" as="sourcePoint" />
            <mxPoint x="372" y="440" as="targetPoint" />
          </mxGeometry>
        </mxCell>
        <mxCell id="1S32xIj5badAPdLJ8PSW-147" value="extend" style="edgeLabel;html=1;align=center;verticalAlign=middle;resizable=0;points=[];" vertex="1" connectable="0" parent="1S32xIj5badAPdLJ8PSW-146">
          <mxGeometry x="-0.022" y="1" relative="1" as="geometry">
            <mxPoint as="offset" />
          </mxGeometry>
        </mxCell>
        <mxCell id="1S32xIj5badAPdLJ8PSW-148" value="" style="endArrow=none;html=1;rounded=0;" edge="1" parent="1" target="1S32xIj5badAPdLJ8PSW-93">
          <mxGeometry width="50" height="50" relative="1" as="geometry">
            <mxPoint x="90" y="300" as="sourcePoint" />
            <mxPoint x="150" y="200" as="targetPoint" />
            <Array as="points">
              <mxPoint x="90" y="120" />
              <mxPoint x="660" y="120" />
              <mxPoint x="660" y="300" />
            </Array>
          </mxGeometry>
        </mxCell>
        <mxCell id="1S32xIj5badAPdLJ8PSW-149" value="" style="endArrow=none;html=1;rounded=0;entryX=0;entryY=0.3333333333333333;entryDx=0;entryDy=0;entryPerimeter=0;exitX=0.561;exitY=0.966;exitDx=0;exitDy=0;exitPerimeter=0;" edge="1" parent="1" source="1S32xIj5badAPdLJ8PSW-99" target="1S32xIj5badAPdLJ8PSW-85">
          <mxGeometry width="50" height="50" relative="1" as="geometry">
            <mxPoint y="660" as="sourcePoint" />
            <mxPoint x="50" y="610" as="targetPoint" />
            <Array as="points">
              <mxPoint x="527" y="680" />
              <mxPoint x="40" y="680" />
              <mxPoint x="40" y="415" />
            </Array>
          </mxGeometry>
        </mxCell>
        <mxCell id="1S32xIj5badAPdLJ8PSW-150" value="" style="endArrow=none;html=1;rounded=0;exitX=1;exitY=0.5;exitDx=0;exitDy=0;" edge="1" parent="1" source="1S32xIj5badAPdLJ8PSW-97">
          <mxGeometry width="50" height="50" relative="1" as="geometry">
            <mxPoint x="690" y="500" as="sourcePoint" />
            <mxPoint x="730" y="520" as="targetPoint" />
          </mxGeometry>
        </mxCell>
        <mxCell id="1S32xIj5badAPdLJ8PSW-151" value="" style="endArrow=none;html=1;rounded=0;exitX=0;exitY=0.3333333333333333;exitDx=0;exitDy=0;exitPerimeter=0;" edge="1" parent="1" source="1S32xIj5badAPdLJ8PSW-84" target="1S32xIj5badAPdLJ8PSW-95">
          <mxGeometry width="50" height="50" relative="1" as="geometry">
            <mxPoint x="20" y="260" as="sourcePoint" />
            <mxPoint x="60" y="80" as="targetPoint" />
            <Array as="points">
              <mxPoint x="30" y="300" />
              <mxPoint x="30" y="680" />
              <mxPoint x="670" y="680" />
              <mxPoint x="670" y="430" />
            </Array>
          </mxGeometry>
        </mxCell>
        <mxCell id="1S32xIj5badAPdLJ8PSW-152" value="" style="endArrow=none;html=1;rounded=0;exitX=0.992;exitY=0.58;exitDx=0;exitDy=0;exitPerimeter=0;" edge="1" parent="1" source="1S32xIj5badAPdLJ8PSW-93">
          <mxGeometry width="50" height="50" relative="1" as="geometry">
            <mxPoint x="630" y="390" as="sourcePoint" />
            <mxPoint x="670" y="430" as="targetPoint" />
          </mxGeometry>
        </mxCell>
        <mxCell id="1S32xIj5badAPdLJ8PSW-153" value="Check" style="ellipse;whiteSpace=wrap;html=1;" vertex="1" parent="1">
          <mxGeometry x="365" y="470" width="70" height="30" as="geometry" />
        </mxCell>
        <mxCell id="1S32xIj5badAPdLJ8PSW-154" value="Error" style="ellipse;whiteSpace=wrap;html=1;" vertex="1" parent="1">
          <mxGeometry x="365" y="515" width="65" height="30" as="geometry" />
        </mxCell>
        <mxCell id="1S32xIj5badAPdLJ8PSW-155" value="" style="html=1;labelBackgroundColor=#ffffff;startArrow=none;startFill=0;startSize=6;endArrow=classic;endFill=1;endSize=6;jettySize=auto;orthogonalLoop=1;strokeWidth=1;dashed=1;fontSize=14;rounded=0;entryX=0;entryY=1;entryDx=0;entryDy=0;exitX=0.846;exitY=0.167;exitDx=0;exitDy=0;exitPerimeter=0;" edge="1" parent="1" source="1S32xIj5badAPdLJ8PSW-154" target="1S32xIj5badAPdLJ8PSW-95">
          <mxGeometry width="60" height="60" relative="1" as="geometry">
            <mxPoint x="425" y="510" as="sourcePoint" />
            <mxPoint x="480" y="470" as="targetPoint" />
          </mxGeometry>
        </mxCell>
        <mxCell id="1S32xIj5badAPdLJ8PSW-156" value="extend" style="edgeLabel;html=1;align=center;verticalAlign=middle;resizable=0;points=[];" vertex="1" connectable="0" parent="1S32xIj5badAPdLJ8PSW-155">
          <mxGeometry x="-0.022" y="1" relative="1" as="geometry">
            <mxPoint as="offset" />
          </mxGeometry>
        </mxCell>
        <mxCell id="1S32xIj5badAPdLJ8PSW-157" value="" style="html=1;labelBackgroundColor=#ffffff;startArrow=none;startFill=0;startSize=6;endArrow=classic;endFill=1;endSize=6;jettySize=auto;orthogonalLoop=1;strokeWidth=1;dashed=1;fontSize=14;rounded=0;exitX=0.023;exitY=0.602;exitDx=0;exitDy=0;entryX=0.76;entryY=0.212;entryDx=0;entryDy=0;exitPerimeter=0;entryPerimeter=0;" edge="1" parent="1" source="1S32xIj5badAPdLJ8PSW-95" target="1S32xIj5badAPdLJ8PSW-153">
          <mxGeometry width="60" height="60" relative="1" as="geometry">
            <mxPoint x="425" y="470" as="sourcePoint" />
            <mxPoint x="455" y="361" as="targetPoint" />
          </mxGeometry>
        </mxCell>
        <mxCell id="1S32xIj5badAPdLJ8PSW-158" value="Include" style="edgeLabel;html=1;align=center;verticalAlign=middle;resizable=0;points=[];" vertex="1" connectable="0" parent="1S32xIj5badAPdLJ8PSW-157">
          <mxGeometry x="-0.154" y="1" relative="1" as="geometry">
            <mxPoint as="offset" />
          </mxGeometry>
        </mxCell>
        <mxCell id="1S32xIj5badAPdLJ8PSW-159" value="" style="html=1;labelBackgroundColor=#ffffff;startArrow=none;startFill=0;startSize=6;endArrow=classic;endFill=1;endSize=6;jettySize=auto;orthogonalLoop=1;strokeWidth=1;dashed=1;fontSize=14;rounded=0;exitX=1;exitY=0;exitDx=0;exitDy=0;entryX=0;entryY=0.5;entryDx=0;entryDy=0;" edge="1" parent="1" source="1S32xIj5badAPdLJ8PSW-98" target="1S32xIj5badAPdLJ8PSW-153">
          <mxGeometry width="60" height="60" relative="1" as="geometry">
            <mxPoint x="340" y="584.5" as="sourcePoint" />
            <mxPoint x="370" y="475.5" as="targetPoint" />
          </mxGeometry>
        </mxCell>
        <mxCell id="1S32xIj5badAPdLJ8PSW-160" value="Include" style="edgeLabel;html=1;align=center;verticalAlign=middle;resizable=0;points=[];" vertex="1" connectable="0" parent="1S32xIj5badAPdLJ8PSW-159">
          <mxGeometry x="-0.154" y="1" relative="1" as="geometry">
            <mxPoint as="offset" />
          </mxGeometry>
        </mxCell>
        <mxCell id="1S32xIj5badAPdLJ8PSW-161" value="" style="html=1;labelBackgroundColor=#ffffff;startArrow=none;startFill=0;startSize=6;endArrow=classic;endFill=1;endSize=6;jettySize=auto;orthogonalLoop=1;strokeWidth=1;dashed=1;fontSize=14;rounded=0;exitX=0.706;exitY=0.924;exitDx=0;exitDy=0;exitPerimeter=0;entryX=0.985;entryY=0.364;entryDx=0;entryDy=0;entryPerimeter=0;" edge="1" parent="1" source="1S32xIj5badAPdLJ8PSW-154" target="1S32xIj5badAPdLJ8PSW-98">
          <mxGeometry width="60" height="60" relative="1" as="geometry">
            <mxPoint x="430" y="530" as="sourcePoint" />
            <mxPoint x="488" y="468" as="targetPoint" />
          </mxGeometry>
        </mxCell>
        <mxCell id="1S32xIj5badAPdLJ8PSW-162" value="extend" style="edgeLabel;html=1;align=center;verticalAlign=middle;resizable=0;points=[];" vertex="1" connectable="0" parent="1S32xIj5badAPdLJ8PSW-161">
          <mxGeometry x="-0.022" y="1" relative="1" as="geometry">
            <mxPoint as="offset" />
          </mxGeometry>
        </mxCell>
        <mxCell id="1S32xIj5badAPdLJ8PSW-166" value="&lt;font style=&quot;font-size: 24px;&quot;&gt;Primary Users&lt;/font&gt;" style="text;html=1;align=center;verticalAlign=middle;resizable=0;points=[];autosize=1;strokeColor=none;fillColor=none;" vertex="1" parent="1">
          <mxGeometry x="20" y="690" width="180" height="40" as="geometry" />
        </mxCell>
        <mxCell id="1S32xIj5badAPdLJ8PSW-168" value="&lt;font style=&quot;font-size: 24px;&quot;&gt;Secondary Users&lt;/font&gt;" style="text;html=1;align=center;verticalAlign=middle;resizable=0;points=[];autosize=1;strokeColor=none;fillColor=none;" vertex="1" parent="1">
          <mxGeometry x="635" y="680" width="210" height="40" as="geometry" />
        </mxCell>
        <mxCell id="1S32xIj5badAPdLJ8PSW-169" value="&lt;font style=&quot;font-size: 36px;&quot;&gt;&lt;b&gt;&lt;u&gt;Main UseCase Diagram&lt;/u&gt;&lt;/b&gt;&lt;/font&gt;" style="text;html=1;align=center;verticalAlign=middle;resizable=0;points=[];autosize=1;strokeColor=none;fillColor=none;" vertex="1" parent="1">
          <mxGeometry x="190" y="63" width="420" height="60" as="geometry" />
        </mxCell>
      </root>
    </mxGraphModel>
  </diagram>
</mxfile>
